<svg id="visual" viewBox="0 0 900 600" width="900" height="600" xmlns="http://www.w3.org/2000/svg" xmlns:xlink="http://www.w3.org/1999/xlink" version="1.1"><rect x="0" y="0" width="900" height="600" fill="#1A3636"></rect><path d="M534 600L542.2 583.3C550.3 566.7 566.7 533.3 566.2 500C565.7 466.7 548.3 433.3 552.5 400C556.7 366.7 582.3 333.3 583.8 300C585.3 266.7 562.7 233.3 553.8 200C545 166.7 550 133.3 552.8 100C555.7 66.7 556.3 33.3 556.7 16.7L557 0L900 0L900 16.7C900 33.3 900 66.7 900 100C900 133.3 900 166.7 900 200C900 233.3 900 266.7 900 300C900 333.3 900 366.7 900 400C900 433.3 900 466.7 900 500C900 533.3 900 566.7 900 583.3L900 600Z" fill="#40534c"></path><path d="M596 600L603.5 583.3C611 566.7 626 533.3 638.3 500C650.7 466.7 660.3 433.3 667.7 400C675 366.7 680 333.3 682.8 300C685.7 266.7 686.3 233.3 675.8 200C665.3 166.7 643.7 133.3 626.5 100C609.3 66.7 596.7 33.3 590.3 16.7L584 0L900 0L900 16.7C900 33.3 900 66.7 900 100C900 133.3 900 166.7 900 200C900 233.3 900 266.7 900 300C900 333.3 900 366.7 900 400C900 433.3 900 466.7 900 500C900 533.3 900 566.7 900 583.3L900 600Z" fill="#5b6e5e"></path><path d="M727 600L714.7 583.3C702.3 566.7 677.7 533.3 675 500C672.3 466.7 691.7 433.3 700 400C708.3 366.7 705.7 333.3 696.2 300C686.7 266.7 670.3 233.3 670 200C669.7 166.7 685.3 133.3 697.3 100C709.3 66.7 717.7 33.3 721.8 16.7L726 0L900 0L900 16.7C900 33.3 900 66.7 900 100C900 133.3 900 166.7 900 200C900 233.3 900 266.7 900 300C900 333.3 900 366.7 900 400C900 433.3 900 466.7 900 500C900 533.3 900 566.7 900 583.3L900 600Z" fill="#7e896f"></path><path d="M764 600L768.7 583.3C773.3 566.7 782.7 533.3 783.7 500C784.7 466.7 777.3 433.3 770.2 400C763 366.7 756 333.3 752.8 300C749.7 266.7 750.3 233.3 757.5 200C764.7 166.7 778.3 133.3 778 100C777.7 66.7 763.3 33.3 756.2 16.7L749 0L900 0L900 16.7C900 33.3 900 66.7 900 100C900 133.3 900 166.7 900 200C900 233.3 900 266.7 900 300C900 333.3 900 366.7 900 400C900 433.3 900 466.7 900 500C900 533.3 900 566.7 900 583.3L900 600Z" fill="#a7a481"></path><path d="M826 600L824.2 583.3C822.3 566.7 818.7 533.3 823.7 500C828.7 466.7 842.3 433.3 842.5 400C842.7 366.7 829.3 333.3 820.7 300C812 266.7 808 233.3 814 200C820 166.7 836 133.3 841.8 100C847.7 66.7 843.3 33.3 841.2 16.7L839 0L900 0L900 16.7C900 33.3 900 66.7 900 100C900 133.3 900 166.7 900 200C900 233.3 900 266.7 900 300C900 333.3 900 366.7 900 400C900 433.3 900 466.7 900 500C900 533.3 900 566.7 900 583.3L900 600Z" fill="#d6bd98"></path></svg>